# xmcd
#
# Track frame offsets:
#	150
#	17910
#	32655
#	49069
#	65785
#	87143
#	104477
#	124113
#	137067
#	152200
#	170606
#
# Disc length: 2468 seconds
#
# Revision: 2
# Processed by: cddbd v1.5.2PL0 Copyright (c) Steve Scherf et al.
# Submitted via: audiograbber 1.83.01
#
DISCID=9709a20b
DTITLE=David Nail - I'm A Fire
DYEAR=2014
DGENRE=Country
TTITLE0=Whatever She's Got
TTITLE1=Broke My Heart
TTITLE2=Burnin' Bed
TTITLE3=When They're Gone ( Lyle County ) ( feat. Little Big Town )
TTITLE4=Brand New Day
TTITLE5=Kiss You Tonight
TTITLE6=The Secret
TTITLE7=Countin' Cars
TTITLE8=Easy Love
TTITLE9=I'm A Fire
TTITLE10=Galveston ( feat. Lee Ann Womack )
EXTD=YEAR: 2014
EXTT0=
EXTT1=
EXTT2=
EXTT3=
EXTT4=
EXTT5=
EXTT6=
EXTT7=
EXTT8=
EXTT9=
EXTT10=
PLAYORDER=
